<svg version="1.1" id="Layer_1" xmlns="http://www.w3.org/2000/svg" xmlns:xlink="http://www.w3.org/1999/xlink" x="0px" y="0px"
	 width="100%" viewBox="0 0 560 560" enable-background="new 0 0 560 560" xml:space="preserve">
<path fill="#000000" opacity="1.000000" stroke="none" 
	d="
M409.608917,308.999817 
	C409.609070,253.084824 409.609070,197.669830 409.609070,141.609619 
	C379.942627,145.742096 353.970093,156.301941 330.711853,174.391190 
	C328.333649,168.019211 326.203430,162.469147 324.198425,156.874191 
	C323.177246,154.024490 325.642487,153.078766 327.345032,151.926224 
	C345.172577,139.857727 364.514526,131.183533 385.448792,126.073860 
	C397.588867,123.110687 409.945557,121.435097 422.309326,119.840271 
	C428.904633,118.989525 429.318909,119.523109 429.333130,126.355339 
	C429.352966,135.854111 429.471405,145.355408 429.285278,154.850494 
	C429.213837,158.495422 430.316498,159.980316 434.122253,159.749603 
	C442.594574,159.235931 451.101746,159.237244 459.560883,158.588058 
	C464.713318,158.192642 466.118439,160.109894 466.106354,165.085098 
	C465.970978,220.744125 466.021484,276.403625 466.028687,332.062988 
	C466.031586,354.559875 465.998596,377.057037 466.109589,399.553436 
	C466.130432,403.778381 465.283600,405.279449 460.364075,404.630371 
	C420.646057,399.389862 381.638519,401.666595 344.079224,416.980774 
	C329.524963,422.915039 315.737640,430.088287 303.688873,440.492157 
	C291.447479,451.062378 271.987366,451.621063 259.764893,441.390015 
	C238.772858,423.818298 214.300064,413.884827 188.161926,407.565002 
	C161.500839,401.118744 134.502548,400.975281 107.306091,403.920441 
	C94.884621,405.265594 96.000198,408.114288 95.997734,394.249146 
	C95.984184,317.925934 96.024445,241.602707 96.071159,165.279510 
	C96.075203,158.673996 96.165504,158.852493 102.805359,158.622818 
	C110.994652,158.339508 119.103172,159.380203 127.247658,159.774796 
	C131.319107,159.972076 132.880798,158.762375 132.773849,154.501221 
	C132.523056,144.508804 132.805359,134.503952 132.640015,124.507973 
	C132.579361,120.841743 133.821182,119.348694 137.557861,119.680702 
	C172.926178,122.823303 206.322800,131.829758 235.855164,152.463867 
	C237.303818,153.476044 238.681931,154.538513 238.014465,156.486328 
	C236.038239,162.253494 233.933868,167.976761 231.627075,174.422852 
	C219.797684,165.380600 207.534897,158.105408 194.207291,152.752777 
	C181.060333,147.472687 167.576477,143.474594 153.700165,141.882111 
	C151.845749,143.765778 152.421143,145.704681 152.420319,147.453751 
	C152.389923,211.612183 152.486954,275.770935 152.257278,339.928558 
	C152.235718,345.951141 155.530609,346.202148 159.616638,346.612610 
	C187.793716,349.443085 213.778549,358.587341 237.540649,373.942047 
	C249.204254,381.478912 259.666290,390.498444 269.088715,400.713623 
	C269.832611,401.520111 270.332703,402.715363 271.836090,402.751312 
	C271.836090,393.433868 272.274384,384.131866 271.734589,374.886963 
	C270.900208,360.596375 265.131836,353.306763 251.384674,349.193573 
	C224.393799,341.117767 204.907059,324.597870 193.321899,298.862762 
	C192.588425,297.233429 191.314194,295.733307 192.087265,292.836456 
	C211.409622,295.457031 229.816483,300.360626 246.017349,312.079926 
	C262.159454,323.756683 273.649292,338.856293 280.878906,359.042694 
	C297.075470,317.449890 328.257843,298.008484 369.791168,292.812134 
	C371.047485,295.260101 369.816284,296.659912 369.173187,298.112518 
	C358.084930,323.158813 339.810577,340.788635 313.340393,348.000916 
	C293.173309,353.495758 289.694550,368.227386 289.869659,382.922363 
	C289.950684,389.722137 289.883484,396.523621 289.883484,403.443298 
	C291.726501,403.516998 292.438507,401.754547 293.457642,400.646484 
	C322.873627,368.662506 359.795746,351.847626 402.460144,346.631226 
	C409.088287,345.820831 409.555908,345.409851 409.577179,338.500214 
	C409.606934,328.833496 409.600006,319.166626 409.608917,308.999817 
M245.145416,405.098541 
	C241.707108,402.203613 238.443619,399.065094 234.802734,396.452454 
	C206.521011,376.158142 175.037018,365.473602 140.125595,365.168976 
	C132.702133,365.104218 132.691772,365.016724 132.691391,357.647797 
	C132.688416,301.486877 132.690552,245.325943 132.688385,189.165009 
	C132.688324,187.332031 132.659012,185.499054 132.643234,183.666077 
	C132.629074,182.022507 132.068069,180.931870 130.323929,180.305496 
	C120.164948,176.657043 116.373779,179.144684 116.376640,189.594360 
	C116.376732,189.927658 116.376541,190.260971 116.376434,190.594269 
	C116.356697,252.587891 116.347038,314.581512 116.291222,376.575104 
	C116.288002,380.156677 116.002106,383.005310 121.373581,382.576660 
	C161.532150,379.372040 199.937820,386.421875 236.619141,402.990021 
	C240.246796,404.628540 243.764511,406.510468 247.333267,408.279419 
	C247.502945,408.013397 247.672623,407.747406 247.842300,407.481384 
	C247.096588,406.830505 246.350876,406.179626 245.145416,405.098541 
M409.089966,365.629974 
	C408.272095,365.786163 407.460663,366.004883 406.635468,366.089508 
	C376.963501,369.131409 350.187469,379.620819 326.235809,397.358795 
	C324.097198,398.942566 322.003876,400.599548 319.998383,402.347443 
	C318.030090,404.062958 316.200806,405.937958 314.310516,407.742950 
	C325.464661,402.992706 336.205414,398.157379 347.437988,394.373932 
	C377.787354,384.151367 408.864502,379.909027 440.803619,382.592590 
	C445.165741,382.959106 445.750824,381.039612 445.715424,377.408295 
	C445.330536,337.946350 445.826630,298.482697 445.219208,259.017456 
	C444.850586,235.069077 445.471893,211.105637 445.632355,187.148865 
	C445.687714,178.883072 445.665405,178.882538 437.240021,179.417206 
	C436.741730,179.448837 436.244141,179.529800 435.746521,179.527237 
	C430.747742,179.501587 429.173004,181.753052 429.209290,186.900391 
	C429.447662,220.706696 429.315247,254.515564 429.311951,288.323608 
	C429.309662,312.139099 429.247253,335.955078 429.395081,359.769684 
	C429.420349,363.846222 428.168335,365.478516 423.980133,365.280151 
	C419.333496,365.060089 414.660675,365.391418 409.089966,365.629974 
z"/>
<path fill="#000000" opacity="1.000000" stroke="none" 
	d="
M276.779541,207.806885 
	C278.103516,204.940628 279.269165,202.405060 280.372040,200.006012 
	C281.710449,199.901154 282.070068,200.624573 282.392853,201.427765 
	C287.772614,214.813660 297.122101,225.478271 306.203766,236.351624 
	C311.519562,242.716110 316.969269,248.926926 318.461578,257.693329 
	C320.001495,266.739319 317.683289,274.499512 312.333405,281.560822 
	C305.497467,290.583618 298.415955,299.421234 291.631104,308.481537 
	C287.488068,314.013977 284.586273,320.339264 281.504181,326.816711 
	C280.584747,326.044098 280.058533,325.815704 279.892639,325.431641 
	C273.388306,310.376404 262.832977,298.093140 252.711945,285.496552 
	C239.797180,269.423004 239.724869,256.148926 252.362366,240.417511 
	C255.802872,236.134705 259.309418,231.899170 262.927612,227.766205 
	C268.220337,221.720612 272.808167,215.204758 276.779541,207.806885 
M275.636353,271.943359 
	C277.642456,274.262756 278.336853,277.574921 281.458649,279.982666 
	C285.336548,272.892181 289.707794,266.700226 296.630371,261.789001 
	C289.293579,257.280670 284.931305,250.738846 281.003845,242.593216 
	C276.928162,250.779099 272.533081,257.106812 266.196228,261.836029 
	C269.516785,265.352509 272.358368,268.361816 275.636353,271.943359 
z"/>
<path fill="#000000" opacity="1.000000" stroke="none" 
	d="
M266.124329,193.079102 
	C258.835266,201.265121 251.753204,209.161377 243.968384,217.841187 
	C241.516037,211.218994 241.070984,205.337387 240.766083,199.515350 
	C239.754517,180.200333 245.031601,162.625397 256.283844,146.945236 
	C264.434418,135.587250 273.156677,124.630264 279.792908,112.248528 
	C279.997681,111.866493 280.521088,111.655220 280.852478,111.398048 
	C281.271332,111.531746 281.747162,111.537201 281.854218,111.738655 
	C289.779144,126.652458 301.086212,139.301682 309.910675,153.599167 
	C322.024750,173.226624 323.568970,194.412781 318.711548,217.528503 
	C309.712952,209.198792 302.143524,200.740051 295.032806,191.874329 
	C287.858398,182.929214 284.225952,172.273636 280.946960,159.931412 
	C277.859589,172.764740 273.777039,183.561279 266.124329,193.079102 
z"/>
<path fill="#000000" opacity="1.000000" stroke="none" 
	d="
M327.450317,293.600159 
	C326.629181,287.985870 329.922333,283.514618 331.575592,278.639343 
	C336.753082,263.371490 343.886841,249.115448 356.678650,238.626877 
	C364.014923,232.611542 371.971863,227.437103 380.770782,223.715134 
	C382.242767,223.092468 383.678833,221.961136 385.446838,222.865204 
	C385.438629,250.915604 368.438080,282.634430 327.450317,293.600159 
z"/>
<path fill="#000000" opacity="1.000000" stroke="none" 
	d="
M188.742188,262.166260 
	C180.976120,249.987778 176.803284,237.062286 176.225220,222.959732 
	C196.975418,221.871628 231.902588,263.677155 235.348236,294.008057 
	C216.410324,288.192932 199.848907,279.565369 188.742188,262.166260 
z"/>
<path fill="#000000" opacity="1.000000" stroke="none" 
	d="
M359.337524,186.876312 
	C362.016754,212.508316 352.047852,232.350220 333.010193,249.740143 
	C329.199524,232.282394 326.550873,216.030991 332.202759,199.433304 
	C336.047577,188.142471 346.804810,174.320404 355.954407,170.091446 
	C358.625610,175.232880 358.234985,180.997772 359.337524,186.876312 
z"/>
<path fill="#000000" opacity="1.000000" stroke="none" 
	d="
M202.681320,200.799255 
	C202.363525,190.192459 202.617813,180.126968 205.722137,170.336578 
	C227.342133,175.747421 241.067886,222.667892 228.616837,249.072021 
	C214.218063,236.020660 204.323593,220.946899 202.681320,200.799255 
z"/>
</svg>